<?xml version="1.0" standalone="no"?>
<!DOCTYPE svg PUBLIC "-//W3C//DTD SVG 20010904//EN"
 "http://www.w3.org/TR/2001/REC-SVG-20010904/DTD/svg10.dtd">
<svg version="1.0" xmlns="http://www.w3.org/2000/svg"
 width="48px" height="48px" viewBox="0 0 48.000000 48.000000"
 preserveAspectRatio="xMidYMid meet">
<metadata>
Created by potrace 1.16, written by Peter Selinger 2001-2019
</metadata>
<g transform="translate(0.000000,48.000000) scale(0.008177,-0.008177)"
fill="#000000" stroke="none">
<path d="M2665 5854 c-16 -2 -66 -9 -110 -14 -213 -28 -439 -84 -655 -163
-254 -92 -589 -282 -805 -457 -116 -93 -324 -299 -423 -418 -298 -361 -515
-818 -606 -1277 -47 -240 -51 -287 -51 -595 0 -308 4 -355 51 -595 91 -458
309 -918 607 -1277 103 -124 300 -319 420 -417 358 -289 800 -495 1253 -585
239 -47 286 -51 594 -51 308 0 355 4 595 51 459 91 916 308 1277 606 119 99
325 307 418 423 283 350 496 806 584 1250 47 240 51 287 51 595 0 308 -4 355
-51 595 -91 459 -308 916 -606 1277 -99 119 -307 325 -423 418 -138 112 -354
249 -525 334 -295 146 -539 222 -905 283 -86 14 -614 27 -690 17z m1639 -1178
c149 -54 136 -37 136 -180 l0 -123 125 -83 125 -83 0 -1404 c0 -1244 -2 -1408
-15 -1441 -21 -49 -52 -81 -100 -103 -37 -17 -76 -19 -557 -19 l-518 0 10 23
c5 12 27 128 50 257 22 129 43 247 46 263 l6 27 155 0 c172 0 206 9 244 61 53
75 87 262 59 329 -22 52 -51 60 -220 60 -177 0 -163 -22 -121 185 33 163 58
232 106 298 80 107 167 144 372 156 178 10 196 19 201 101 5 87 -40 254 -80
297 -69 73 -358 70 -583 -6 -263 -90 -470 -293 -577 -566 -17 -44 -48 -165
-69 -270 -22 -104 -39 -191 -39 -192 0 0 -152 -3 -337 -6 -281 -3 -374 -9
-552 -30 -117 -14 -215 -27 -217 -29 -2 -2 103 -19 233 -38 130 -19 242 -39
249 -45 6 -5 15 -24 19 -41 8 -39 4 -40 -158 -50 -65 -4 -116 -8 -114 -10 2
-2 68 -13 148 -25 79 -11 147 -26 151 -32 4 -7 8 -22 8 -34 0 -26 9 -25 -524
-53 -209 -11 -381 -22 -382 -23 -6 -6 1004 -38 1189 -37 l197 0 0 -22 c-1 -13
-22 -139 -48 -280 -41 -222 -46 -258 -32 -262 8 -2 -336 -4 -765 -5 l-781 -1
-44 22 c-24 13 -58 40 -74 61 l-31 39 -3 1422 -2 1423 125 83 125 83 0 123 c0
87 4 125 13 131 6 4 55 24 107 44 l95 37 1277 1 1277 1 95 -34z"/>
</g>
</svg>
