<?xml version="1.0" standalone="no"?>
<!DOCTYPE svg PUBLIC "-//W3C//DTD SVG 20010904//EN"
 "http://www.w3.org/TR/2001/REC-SVG-20010904/DTD/svg10.dtd">
<svg version="1.0" xmlns="http://www.w3.org/2000/svg"
 width="48px" height="48px" viewBox="0 0 100.000000 100.000000"
 preserveAspectRatio="xMidYMid meet">

<g transform="translate(0.000000,100.000000) scale(0.100000,-0.100000)"
fill="#000000" stroke="none">
<path d="M390 802 c-19 -10 -45 -34 -58 -53 -13 -19 -38 -42 -57 -51 -42 -22
-72 -60 -87 -111 -10 -34 -9 -46 6 -86 10 -25 21 -76 25 -112 5 -39 15 -76 27
-92 27 -36 85 -67 128 -67 22 0 49 -9 66 -22 41 -30 124 -35 170 -10 19 10 45
34 58 52 12 19 39 43 60 55 79 44 108 126 73 209 -11 28 -21 71 -21 95 0 23
-7 58 -16 77 -21 43 -88 84 -138 84 -22 0 -48 9 -66 22 -41 30 -124 35 -170
10z m129 -36 c24 -13 23 -14 -47 -55 l-72 -42 0 -94 0 -95 -25 12 c-24 11 -25
14 -25 110 0 110 7 130 53 158 37 23 82 25 116 6z m156 -52 c37 -17 69 -68 64
-101 -4 -22 -6 -21 -73 18 l-68 39 -79 -45 c-43 -25 -81 -45 -84 -45 -3 0 -5
13 -5 29 0 25 8 34 53 60 121 69 135 72 192 45z m-375 -133 l0 -79 86 -50 86
-50 -28 -15 c-27 -15 -32 -14 -84 15 -119 67 -150 109 -129 180 9 31 45 78 61
78 4 0 8 -36 8 -79z m427 -38 c38 -28 56 -79 42 -125 -8 -31 -45 -78 -60 -78
-5 0 -9 37 -11 81 l-3 82 -84 47 -83 48 28 15 c27 15 32 14 84 -15 30 -17 69
-42 87 -55z m-191 16 c29 -18 34 -26 34 -59 0 -33 -5 -41 -35 -60 l-35 -22
-35 22 c-30 19 -35 27 -35 60 0 32 5 41 33 59 39 25 33 25 73 0z m114 -165 c0
-98 -1 -103 -28 -132 -16 -17 -41 -34 -56 -38 -30 -7 -93 2 -101 16 -3 5 26
28 65 51 l70 41 0 94 0 94 25 -12 c24 -11 25 -14 25 -114z m-80 -3 c0 -26 -9
-34 -72 -71 -40 -23 -87 -44 -104 -47 -64 -11 -142 56 -133 114 4 22 6 21 73
-18 l68 -39 77 44 c42 25 79 45 84 46 4 0 7 -13 7 -29z"/>
</g>
</svg>
